<svg width="100" height="104" xmlns="http://www.w3.org/2000/svg">

 <g>
  <title>background</title>
  <rect fill="none" id="canvas_background" height="106" width="102" y="-1" x="-1"/>
 </g>
 <g>
  <title>Layer 1</title>
  <path id="svg_1" d="m83.20349,54.75784l-2.78372,-10.8129c-0.83803,-3.25512 -3.30621,-5.84159 -6.51859,-6.83095l-10.22556,-3.14933c-7.70018,-6.41302 -19.59829,-6.41798 -27.30526,-0.01415l-10.27152,3.16348c-3.21237,0.98936 -5.68056,3.57583 -6.51859,6.83095l-2.78374,10.8129c-0.46493,1.80587 0.79511,3.59943 2.65164,3.77442l4.74097,0.44687c0.5885,0.05545 1.16741,0.03682 1.73275,-0.03505c1.07397,3.44422 3.44824,6.33239 6.36595,8.40117c-2.84897,4.96986 -4.64791,11.65805 -1.95867,17.07553c-1.32244,2.65773 -3.09462,10.57922 1.92981,10.57922l35.51065,0c5.02387,0 3.25202,-7.92195 1.92981,-10.57922c2.6892,-5.4174 0.89023,-12.10579 -1.95867,-17.07553c2.91665,-2.06788 5.29014,-4.95485 6.36466,-8.39738c0.55669,0.06877 1.12646,0.08582 1.70549,0.03126l4.74096,-0.44687c1.85652,-0.17499 3.11655,-1.96855 2.65163,-3.77442zm-16.09835,26.13202c-1.41251,6.30435 -8.81678,7.59735 -14.2565,7.8696c1.13358,-1.75407 0.87499,-4.14803 -0.60207,-5.6251l-0.08474,-0.08489c-0.89172,-0.89639 -1.93629,-0.98927 -3.06802,-1.42266c-0.98075,-0.37557 -1.88111,-0.96398 -2.48611,-1.83673c-0.70346,-1.0148 -0.90739,-2.26975 -0.83383,-3.48343c0.05266,-0.86888 0.27554,-2.75379 -1.30953,-2.25765c-1.05174,0.3292 -1.61676,2.35233 -1.88492,3.28624c-0.34635,1.20626 -0.48086,2.47214 -0.4249,3.72484c0.12229,2.73767 1.15454,5.42101 2.89211,7.53931c-4.35715,-0.44798 -9.70093,-1.74108 -11.62921,-6.18087c-2.25466,-5.19127 0.61284,-11.76143 3.7946,-15.91528c0,-0.00001 0.00002,0 0.00002,-0.00001c3.00098,-3.91758 7.45515,-7.13204 12.56464,-7.13204l0.47505,0c4.98047,0 9.34812,3.06033 12.33585,6.8416c3.09661,3.91908 5.65799,9.58648 4.51756,14.67707zm0.31551,9.35958c0,0.36479 -0.02196,0.73624 -0.06527,1.10845l-16.80086,0c-0.02995,-0.25672 -0.04602,-0.51486 -0.05531,-0.77306c0.54279,-0.17811 1.05505,-0.46638 1.48871,-0.83835c4.76022,-0.14728 10.57591,-0.8005 13.96476,-4.57027c0.96279,1.50485 1.46797,3.28873 1.46797,5.07323zm-34.50239,-2.41491c0.24459,-0.93765 0.63521,-1.84155 1.15763,-2.65815c2.94159,3.27205 7.77115,4.1549 11.94897,4.46612c0.95327,0.82825 2.23631,1.26469 3.49827,1.14806c-0.0109,0.18895 -0.02718,0.37949 -0.04892,0.56733l-16.80118,0c-0.13616,-1.17689 -0.05384,-2.37681 0.24523,-3.52336zm32.80378,-23.52774c-0.73646,0.52917 -1.51544,0.99176 -2.3268,1.39631c-3.18275,-4.04632 -7.82654,-7.28201 -13.14351,-7.28201l-0.47505,0c-5.3167,0 -9.96082,3.23575 -13.14328,7.28209c-3.31139,-1.65093 -6.2247,-4.4298 -7.28594,-8.05706c1.61623,-1.09936 2.82469,-2.7896 3.26808,-4.82763l2.59895,-11.94605c6.08913,-10.70666 23.39879,-10.74364 29.55319,-0.08199l2.61678,12.02804c0.44557,2.04804 1.66383,3.74472 3.29206,4.84358c-0.7642,2.59677 -2.52507,4.89901 -4.95448,6.64472c-0.42737,0.30708 2.42941,-1.74571 0,0z"/>
  <text id="svg_2" font-family="'Helvetica Neue', Helvetica, Arial-Unicode, Arial, Sans-serif" font-weight="bold" font-size="5px" fill="#000000" y="115" x="0">Created by Ryan Spiering</text>
  <text id="svg_3" font-family="'Helvetica Neue', Helvetica, Arial-Unicode, Arial, Sans-serif" font-weight="bold" font-size="5px" fill="#000000" y="120" x="0">from the Noun Project</text>
 </g>
</svg>