<svg xmlns="http://www.w3.org/2000/svg" xmlns:xlink="http://www.w3.org/1999/xlink" version="1.1" x="0px" y="0px" viewBox="0 0 100 125" enable-background="new 0 0 100 100" xml:space="preserve"><path d="M83.2034912,54.7578354l-2.7837219-10.8128929c-0.838028-3.255127-3.3062134-5.8415947-6.5185852-6.8309517  l-10.2255592-3.149334c-7.7001839-6.4130192-19.5982933-6.4179764-27.3052635-0.0141487L26.098835,37.1139908  c-3.212368,0.989357-5.6805553,3.5758247-6.5185814,6.8309517l-2.7837467,10.8128929  c-0.464922,1.8058739,0.7951126,3.5994301,2.6516476,3.7744217l4.7409687,0.4468689  c0.5884972,0.0554581,1.1674061,0.0368233,1.7327461-0.0350456c1.0739727,3.4442215,3.4482441,6.332386,6.3659534,8.4011726  c-2.8489704,4.9698563-4.6479092,11.6580429-1.9586735,17.075531C29.0067101,87.0785141,27.2345295,95,32.2589607,95h35.5106468  c5.0238724,0,3.2520218-7.9219513,1.9298096-10.579216c2.6892014-5.4174042,0.8902283-12.1057968-1.9586716-17.075531  c2.9166565-2.0678864,5.2901459-4.9548531,6.3646622-8.3973846c0.556694,0.0687752,1.1264648,0.0858231,1.7054901,0.0312576  l4.7409668-0.4468689C82.4083786,58.3572655,83.6684113,56.5637093,83.2034912,54.7578354z M67.1051407,80.8898621  c-1.4125061,6.3043442-8.8167839,7.5973511-14.2565041,7.8695984c1.1335869-1.7540741,0.8749962-4.1480331-0.602066-5.6250992  l-0.0847397-0.0848923c-0.891716-0.8963928-1.9362869-0.9892731-3.0680237-1.4226608  c-0.980751-0.3755646-1.8811111-0.9639816-2.4861031-1.836731c-0.7034683-1.014801-0.9073982-2.2697449-0.8338356-3.483429  c0.0526619-0.8688736,0.2755394-2.7537918-1.3095284-2.2576523c-1.0517387,0.3292007-1.6167641,2.3523331-1.8849182,3.2862396  c-0.3463516,1.2062607-0.4808655,2.4721451-0.4249039,3.7248459c0.1222954,2.7376709,1.154541,5.4210052,2.8921165,7.5393066  c-4.3571548-0.4479752-9.7009392-1.7410812-11.6292152-6.1808701c-2.2546577-5.1912689,0.6128387-11.7614288,3.7946014-15.9152756  c0-0.0000153,0.0000191,0,0.0000191-0.0000153c3.0009804-3.9175797,7.4551544-7.1320343,12.5646439-7.1320343h0.4750481  c4.9804688,0,9.3481216,3.0603294,12.3358459,6.8415985C65.6841888,70.1318665,68.2455673,75.7992706,67.1051407,80.8898621z   M67.4206467,90.2494431c0,0.3647919-0.0219574,0.7362366-0.0652618,1.1084518h-16.800869  c-0.0299492-0.2567215-0.0460205-0.5148621-0.0553017-0.7730637c0.5427818-0.1781082,1.0550499-0.4663849,1.4887047-0.8383484  c4.7602234-0.1472778,10.5759087-0.800499,13.9647636-4.5702744C66.9154663,86.6810608,67.4206467,88.4649429,67.4206467,90.2494431  z M32.9182625,87.8345261c0.2445831-0.937645,0.6352043-1.8415451,1.1576271-2.6581421  c2.9415932,3.2720413,7.7711525,4.154892,11.948967,4.4661179c0.9532738,0.8282471,2.2363129,1.2646866,3.4982758,1.148056  c-0.0109062,0.1889496-0.0271835,0.3794937-0.0489235,0.567337H32.673027  C32.5368729,90.1809998,32.619194,88.9810791,32.9182625,87.8345261z M65.7220383,64.3067932  c-0.7364578,0.5291672-1.5154343,0.9917526-2.3267937,1.3963089c-3.1827545-4.0463257-7.8265495-7.2820091-13.1435127-7.2820091  h-0.4750481c-5.3167076,0-9.9608192,3.2357445-13.1432838,7.2820854c-3.3113899-1.6509323-6.2246952-4.4298019-7.2859364-8.0570564  c1.6162262-1.0993652,2.8246899-2.7896042,3.2680759-4.8276291l2.5989532-11.9460487  c6.0891304-10.706665,23.3987923-10.7436428,29.5531921-0.0819969l2.6167755,12.0280457  c0.4455719,2.0480347,1.6638336,3.7447128,3.2920609,4.8435745C69.9123154,60.2588387,68.1514511,62.5610771,65.7220383,64.3067932  C65.2946701,64.6138687,68.1514511,62.5610771,65.7220383,64.3067932z"/><text x="0" y="115" fill="#000000" font-size="5px" font-weight="bold" font-family="'Helvetica Neue', Helvetica, Arial-Unicode, Arial, Sans-serif">Created by Ryan Spiering</text><text x="0" y="120" fill="#000000" font-size="5px" font-weight="bold" font-family="'Helvetica Neue', Helvetica, Arial-Unicode, Arial, Sans-serif">from the Noun Project</text></svg>